<svg width="22" height="20" viewBox="0 0 22 20" fill="none" xmlns="http://www.w3.org/2000/svg">
<path d="M10.022 0.85958C10.3219 -0.0606967 11.6238 -0.0606959 11.9237 0.859581L13.6748 6.23398C13.8089 6.64561 14.1926 6.92418 14.6256 6.92418H20.2863C21.2557 6.92418 21.658 8.16521 20.873 8.73398L16.2982 12.0486C15.9467 12.3033 15.7996 12.7555 15.9341 13.1682L17.6826 18.5349C17.9827 19.4557 16.9294 20.2227 16.1451 19.6544L11.5596 16.3321C11.2095 16.0784 10.7362 16.0784 10.3861 16.3321L5.80059 19.6544C5.01633 20.2227 3.96304 19.4557 4.26306 18.5348L6.01164 13.1682C6.14609 12.7555 5.99901 12.3033 5.64755 12.0486L1.07268 8.73398C0.28767 8.16521 0.690001 6.92418 1.6594 6.92418H7.32015C7.75308 6.92418 8.13684 6.64561 8.27096 6.23398L10.022 0.85958Z" fill="#070707"/>
</svg>
